<?xml version="1.0" encoding="utf-8"?>
<!-- Generator: Adobe Illustrator 17.1.0, SVG Export Plug-In . SVG Version: 6.00 Build 0)  -->
<!DOCTYPE svg PUBLIC "-//W3C//DTD SVG 1.1//EN" "http://www.w3.org/Graphics/SVG/1.1/DTD/svg11.dtd">
<svg version="1.1" xmlns="http://www.w3.org/2000/svg" xmlns:xlink="http://www.w3.org/1999/xlink" x="0px" y="0px"
	 viewBox="0 0 612 592" enable-background="new 0 0 612 592" xml:space="preserve">
<g id="Layer_1" display="none">
	<linearGradient id="SVGID_1_" gradientUnits="userSpaceOnUse" x1="17.25" y1="332.9582" x2="594.75" y2="332.9582">
		<stop  offset="0" style="stop-color:#C0C1A8"/>
		<stop  offset="0.2055" style="stop-color:#AAB29A"/>
		<stop  offset="0.7308" style="stop-color:#7C917A"/>
		<stop  offset="1" style="stop-color:#6B856F"/>
	</linearGradient>
	<polygon display="inline" fill="url(#SVGID_1_)" stroke="#1F5A2D" stroke-width="2" stroke-miterlimit="10" points="594.8,293.7 
		395.2,205.1 17.3,369.8 214.3,460.8 	"/>
	<linearGradient id="SVGID_2_" gradientUnits="userSpaceOnUse" x1="17.25" y1="317.9906" x2="594.75" y2="317.9906">
		<stop  offset="0" style="stop-color:#C0C1A8"/>
		<stop  offset="0.2055" style="stop-color:#AAB29A"/>
		<stop  offset="0.7308" style="stop-color:#7C917A"/>
		<stop  offset="1" style="stop-color:#6B856F"/>
	</linearGradient>
	<polygon display="inline" fill="url(#SVGID_2_)" stroke="#1F5A2D" stroke-width="2" stroke-miterlimit="10" points="594.8,278.7 
		395.2,190.1 17.3,354.8 214.3,445.8 	"/>
	<linearGradient id="SVGID_3_" gradientUnits="userSpaceOnUse" x1="17.25" y1="303.023" x2="594.75" y2="303.023">
		<stop  offset="0" style="stop-color:#C0C1A8"/>
		<stop  offset="0.2055" style="stop-color:#AAB29A"/>
		<stop  offset="0.7308" style="stop-color:#7C917A"/>
		<stop  offset="1" style="stop-color:#6B856F"/>
	</linearGradient>
	<polygon display="inline" fill="url(#SVGID_3_)" stroke="#1F5A2D" stroke-width="2" stroke-miterlimit="10" points="594.8,263.7 
		395.2,175.2 17.3,339.8 214.3,430.9 	"/>
	<linearGradient id="SVGID_4_" gradientUnits="userSpaceOnUse" x1="17.25" y1="288.0554" x2="594.75" y2="288.0554">
		<stop  offset="0" style="stop-color:#C0C1A8"/>
		<stop  offset="0.2055" style="stop-color:#AAB29A"/>
		<stop  offset="0.7308" style="stop-color:#7C917A"/>
		<stop  offset="1" style="stop-color:#6B856F"/>
	</linearGradient>
	<polygon display="inline" fill="url(#SVGID_4_)" stroke="#1F5A2D" stroke-width="2" stroke-miterlimit="10" points="594.8,248.8 
		395.2,160.2 17.3,324.9 214.3,415.9 	"/>
	<linearGradient id="SVGID_5_" gradientUnits="userSpaceOnUse" x1="17.25" y1="273.0878" x2="594.75" y2="273.0878">
		<stop  offset="0" style="stop-color:#C0C1A8"/>
		<stop  offset="0.2055" style="stop-color:#AAB29A"/>
		<stop  offset="0.7308" style="stop-color:#7C917A"/>
		<stop  offset="1" style="stop-color:#6B856F"/>
	</linearGradient>
	<polygon display="inline" fill="url(#SVGID_5_)" stroke="#1F5A2D" stroke-width="2" stroke-miterlimit="10" points="594.8,233.8 
		395.2,145.2 17.3,309.9 214.3,400.9 	"/>
	<linearGradient id="SVGID_6_" gradientUnits="userSpaceOnUse" x1="17.25" y1="258.1202" x2="594.75" y2="258.1202">
		<stop  offset="0" style="stop-color:#F2F6DC"/>
		<stop  offset="0.1939" style="stop-color:#EAF3D6"/>
		<stop  offset="0.5839" style="stop-color:#DFEECF"/>
		<stop  offset="1" style="stop-color:#DCECCD"/>
	</linearGradient>
	<polygon display="inline" fill="url(#SVGID_6_)" stroke="#1F5A2D" stroke-width="2" stroke-miterlimit="10" points="594.8,218.8 
		395.2,130.3 17.3,294.9 214.3,386 	"/>
	<linearGradient id="SVGID_7_" gradientUnits="userSpaceOnUse" x1="48.4325" y1="257.9011" x2="565.4384" y2="257.9011">
		<stop  offset="0" style="stop-color:#07793D"/>
		<stop  offset="8.230937e-002" style="stop-color:#04753D"/>
		<stop  offset="1" style="stop-color:#005534"/>
	</linearGradient>
	<polygon display="inline" fill="url(#SVGID_7_)" points="565.4,216.3 401.2,143.3 48.4,297.4 210.6,372.5 	"/>
	<linearGradient id="SVGID_8_" gradientUnits="userSpaceOnUse" x1="92.7117" y1="256.9768" x2="515.5464" y2="256.9768">
		<stop  offset="0" style="stop-color:#F2F6DC"/>
		<stop  offset="0.1939" style="stop-color:#EAF3D6"/>
		<stop  offset="0.5839" style="stop-color:#DFEECF"/>
		<stop  offset="1" style="stop-color:#DCECCD"/>
	</linearGradient>
	<path display="inline" fill="url(#SVGID_8_)" d="M92.7,284l273.5-120.7c0,0,17.2,5.3,30.6,5.3s31.5-3.7,31.5-3.7l87.3,38.4
		c0,0-16.6,11.8,0,26.6c-18.3,9.1-273.4,120.8-273.4,120.8s-27.6-10.2-62.2,0c-30.4-14.3-85-38.5-85-38.5S108.9,296.4,92.7,284z"/>
	<linearGradient id="SVGID_9_" gradientUnits="userSpaceOnUse" x1="200.5215" y1="258.1202" x2="401.5002" y2="258.1202">
		<stop  offset="0" style="stop-color:#07793D"/>
		<stop  offset="8.230937e-002" style="stop-color:#04753D"/>
		<stop  offset="1" style="stop-color:#005534"/>
	</linearGradient>
	<path display="inline" fill="url(#SVGID_9_)" d="M200.5,259.8c-0.5-28.1,44.1-51.7,99.6-52.6s100.9,21.1,101.3,49.3
		s-44.1,51.7-99.6,52.6S201,287.9,200.5,259.8z"/>
	<linearGradient id="SVGID_10_" gradientUnits="userSpaceOnUse" x1="160.2166" y1="309.0611" x2="206.0653" y2="309.0611">
		<stop  offset="0" style="stop-color:#07793D"/>
		<stop  offset="8.230937e-002" style="stop-color:#04753D"/>
		<stop  offset="1" style="stop-color:#005534"/>
	</linearGradient>
	<path display="inline" fill="url(#SVGID_10_)" d="M160.2,309.4c-0.1-6.6,10.1-12,22.7-12.2s23,4.9,23.1,11.5
		c0.1,6.6-10.1,12-22.7,12.2C170.7,321.1,160.3,316,160.2,309.4z"/>
	<linearGradient id="SVGID_11_" gradientUnits="userSpaceOnUse" x1="407.5978" y1="201.368" x2="453.4465" y2="201.368">
		<stop  offset="0" style="stop-color:#07793D"/>
		<stop  offset="8.230937e-002" style="stop-color:#04753D"/>
		<stop  offset="1" style="stop-color:#005534"/>
	</linearGradient>
	<path display="inline" fill="url(#SVGID_11_)" d="M407.6,201.7c-0.1-6.6,10.1-12,22.7-12.2c12.7-0.2,23,4.9,23.1,11.5
		c0.1,6.6-10.1,12-22.7,12.2C418.1,213.4,407.7,208.3,407.6,201.7z"/>
	<linearGradient id="SVGID_12_" gradientUnits="userSpaceOnUse" x1="213.3732" y1="257.5667" x2="385.6502" y2="257.5667">
		<stop  offset="0" style="stop-color:#F2F6DC"/>
		<stop  offset="0.1939" style="stop-color:#EAF3D6"/>
		<stop  offset="0.5839" style="stop-color:#DFEECF"/>
		<stop  offset="1" style="stop-color:#DCECCD"/>
	</linearGradient>
	<path display="inline" fill="url(#SVGID_12_)" d="M319.9,216.8l-27.9,27.4l24.5-2.9c0,0,41.2-16.4,58.6-3.6
		c17.5,12.8,9.8,25.6,0,32.4c-9.8,6.9-54.3,39.9-100.7,27.1c21.2-17.2,35.7-28.8,35.7-28.8l-18.4-6.7c0,0-40.5,21.4-66.4,9
		c-25.9-12.3-3.6-32.3,7.6-35.1c11.2-2.8,36.6-16.5,36.6-16.5S286.8,211.7,319.9,216.8z"/>
	<linearGradient id="SVGID_13_" gradientUnits="userSpaceOnUse" x1="191.6642" y1="294.3439" x2="421.3444" y2="294.3439">
		<stop  offset="0" style="stop-color:#B4945E"/>
		<stop  offset="0.3599" style="stop-color:#937958"/>
		<stop  offset="1" style="stop-color:#64534C"/>
	</linearGradient>
	<polygon display="inline" fill="url(#SVGID_13_)" points="366.1,396.9 366.4,297.2 191.7,216.1 247.6,191.8 421.3,271.9 
		421.3,372.5 	"/>
	<linearGradient id="SVGID_14_" gradientUnits="userSpaceOnUse" x1="366.0794" y1="334.4095" x2="421.3444" y2="334.4095">
		<stop  offset="0" style="stop-color:#B4945E"/>
		<stop  offset="0.3599" style="stop-color:#937958"/>
		<stop  offset="1" style="stop-color:#64534C"/>
	</linearGradient>
	<polygon display="inline" fill="url(#SVGID_14_)" points="366.1,396.9 366.4,297.2 366.4,297.2 421.3,271.9 421.3,271.9 
		421.3,372.5 	"/>
	<linearGradient id="SVGID_15_" gradientUnits="userSpaceOnUse" x1="196.2979" y1="293.3641" x2="417.5554" y2="293.3641">
		<stop  offset="0" style="stop-color:#FAF071"/>
		<stop  offset="0.5846" style="stop-color:#FCF7BC"/>
		<stop  offset="1" style="stop-color:#FEFDEB"/>
	</linearGradient>
	<polygon display="inline" fill="url(#SVGID_15_)" points="372.3,394.1 372.3,293.8 196.3,213.4 244.3,192.6 417.2,273.8 
		417.6,374.3 	"/>
	<linearGradient id="SVGID_16_" gradientUnits="userSpaceOnUse" x1="372.2725" y1="333.9877" x2="417.5554" y2="333.9877">
		<stop  offset="0" style="stop-color:#FAF071"/>
		<stop  offset="0.5846" style="stop-color:#FCF7BC"/>
		<stop  offset="1" style="stop-color:#FEFDEB"/>
	</linearGradient>
	<polygon display="inline" fill="url(#SVGID_16_)" points="372.3,394.1 372.3,293.8 372.3,293.8 417.2,273.8 417.2,273.8 
		417.6,374.3 	"/>
</g>
<g id="Layer_2">
	<linearGradient id="SVGID_17_" gradientUnits="userSpaceOnUse" x1="49.6667" y1="282.7658" x2="581.3333" y2="282.7658">
		<stop  offset="0" style="stop-color:#4F6AB2"/>
		<stop  offset="0.2818" style="stop-color:#5884C3"/>
		<stop  offset="0.6042" style="stop-color:#60A0D7"/>
		<stop  offset="0.8544" style="stop-color:#66B3E3"/>
		<stop  offset="1" style="stop-color:#69BAE8"/>
	</linearGradient>
	<path fill="url(#SVGID_17_)" d="M548.8,455.2H82.2c-18,0-32.5-14.6-32.5-32.5V142.9c0-18,14.6-32.5,32.5-32.5h466.6
		c18,0,32.5,14.6,32.5,32.5v279.8C581.3,440.6,566.8,455.2,548.8,455.2z"/>
	<linearGradient id="SVGID_18_" gradientUnits="userSpaceOnUse" x1="282.9311" y1="282.7657" x2="581.3333" y2="282.7657">
		<stop  offset="0" style="stop-color:#4F6AB2"/>
		<stop  offset="0.2818" style="stop-color:#5884C3"/>
		<stop  offset="0.6042" style="stop-color:#60A0D7"/>
		<stop  offset="0.8544" style="stop-color:#66B3E3"/>
		<stop  offset="1" style="stop-color:#69BAE8"/>
	</linearGradient>
	<path fill="url(#SVGID_18_)" d="M548.8,110.3H290.3c43.2,52,62.4,135.5,44.9,223.1c-9.3,46.7-27.9,88.3-52.2,121.7h265.9
		c18,0,32.5-14.6,32.5-32.5V142.9C581.3,124.9,566.8,110.3,548.8,110.3z"/>
	<circle fill="#FFDE17" cx="446" cy="189.7" r="34"/>
	<circle fill="#F15A29" cx="491.3" cy="189.7" r="34"/>
	<g>
		<linearGradient id="SVGID_19_" gradientUnits="userSpaceOnUse" x1="141.1768" y1="282.0094" x2="168.0249" y2="282.0094">
			<stop  offset="0" style="stop-color:#FFF5AB"/>
			<stop  offset="0.31" style="stop-color:#D9D172"/>
			<stop  offset="0.62" style="stop-color:#BBB442"/>
			<stop  offset="0.8603" style="stop-color:#A8A223"/>
			<stop  offset="1" style="stop-color:#A19C16"/>
		</linearGradient>
		<rect x="141.2" y="275.2" fill="url(#SVGID_19_)" width="26.8" height="13.6"/>
		<linearGradient id="SVGID_20_" gradientUnits="userSpaceOnUse" x1="124.5387" y1="256.8631" x2="136.261" y2="256.8631">
			<stop  offset="0" style="stop-color:#FFF5AB"/>
			<stop  offset="0.31" style="stop-color:#D9D172"/>
			<stop  offset="0.62" style="stop-color:#BBB442"/>
			<stop  offset="0.8603" style="stop-color:#A8A223"/>
			<stop  offset="1" style="stop-color:#A19C16"/>
		</linearGradient>
		<rect x="124.5" y="243.4" fill="url(#SVGID_20_)" width="11.7" height="26.8"/>
		<linearGradient id="SVGID_21_" gradientUnits="userSpaceOnUse" x1="141.1768" y1="256.8631" x2="168.0249" y2="256.8631">
			<stop  offset="0" style="stop-color:#FFF5AB"/>
			<stop  offset="0.31" style="stop-color:#D9D172"/>
			<stop  offset="0.62" style="stop-color:#BBB442"/>
			<stop  offset="0.8603" style="stop-color:#A8A223"/>
			<stop  offset="1" style="stop-color:#A19C16"/>
		</linearGradient>
		<rect x="141.2" y="243.4" fill="url(#SVGID_21_)" width="26.8" height="26.8"/>
		<linearGradient id="SVGID_22_" gradientUnits="userSpaceOnUse" x1="172.9407" y1="256.8631" x2="185.7976" y2="256.8631">
			<stop  offset="0" style="stop-color:#FFF5AB"/>
			<stop  offset="0.31" style="stop-color:#D9D172"/>
			<stop  offset="0.62" style="stop-color:#BBB442"/>
			<stop  offset="0.8603" style="stop-color:#A8A223"/>
			<stop  offset="1" style="stop-color:#A19C16"/>
		</linearGradient>
		<rect x="172.9" y="243.4" fill="url(#SVGID_22_)" width="12.9" height="26.8"/>
		<linearGradient id="SVGID_23_" gradientUnits="userSpaceOnUse" x1="141.1768" y1="233.0401" x2="185.5223" y2="233.0401">
			<stop  offset="0" style="stop-color:#FFF5AB"/>
			<stop  offset="0.31" style="stop-color:#D9D172"/>
			<stop  offset="0.62" style="stop-color:#BBB442"/>
			<stop  offset="0.8603" style="stop-color:#A8A223"/>
			<stop  offset="1" style="stop-color:#A19C16"/>
		</linearGradient>
		<path fill="url(#SVGID_23_)" d="M141.2,238.5h44.3c-1.3-6.3-6.8-11-13.4-11h-30.9V238.5z"/>
		<linearGradient id="SVGID_24_" gradientUnits="userSpaceOnUse" x1="124.5434" y1="281.9295" x2="136.261" y2="281.9295">
			<stop  offset="0" style="stop-color:#FFF5AB"/>
			<stop  offset="0.31" style="stop-color:#D9D172"/>
			<stop  offset="0.62" style="stop-color:#BBB442"/>
			<stop  offset="0.8603" style="stop-color:#A8A223"/>
			<stop  offset="1" style="stop-color:#A19C16"/>
		</linearGradient>
		<path fill="url(#SVGID_24_)" d="M136.3,275.2h-11.7c0,6.9,5.1,12.5,11.7,13.5V275.2z"/>
		<linearGradient id="SVGID_25_" gradientUnits="userSpaceOnUse" x1="124.814" y1="233.1201" x2="136.261" y2="233.1201">
			<stop  offset="0" style="stop-color:#FFF5AB"/>
			<stop  offset="0.31" style="stop-color:#D9D172"/>
			<stop  offset="0.62" style="stop-color:#BBB442"/>
			<stop  offset="0.8603" style="stop-color:#A8A223"/>
			<stop  offset="1" style="stop-color:#A19C16"/>
		</linearGradient>
		<path fill="url(#SVGID_25_)" d="M136.3,238.5v-10.8c-5.7,0.8-10.3,5.2-11.4,10.8H136.3z"/>
		<linearGradient id="SVGID_26_" gradientUnits="userSpaceOnUse" x1="172.9407" y1="281.988" x2="185.7928" y2="281.988">
			<stop  offset="0" style="stop-color:#FFF5AB"/>
			<stop  offset="0.31" style="stop-color:#D9D172"/>
			<stop  offset="0.62" style="stop-color:#BBB442"/>
			<stop  offset="0.8603" style="stop-color:#A8A223"/>
			<stop  offset="1" style="stop-color:#A19C16"/>
		</linearGradient>
		<path fill="url(#SVGID_26_)" d="M172.9,275.2v13.6c7.1-0.4,12.8-6.3,12.9-13.6H172.9z"/>
	</g>
	<rect x="98.1" y="383.4" fill="#FFFFFF" width="113.4" height="18.2"/>
	<rect x="224" y="383.4" fill="#FFFFFF" width="31.4" height="18.2"/>
	<rect x="270.5" y="383.4" fill="#FFFFFF" width="45" height="18.2"/>
	<rect x="133.6" y="322.5" fill="none" width="381.9" height="56.7"/>
	<text transform="matrix(1 0 0 1 146.7344 371.2051)" fill="#FFFFFF" font-family="'ArialMT'" font-size="68.0654">**** **** **** </text>
</g>
</svg>
